<?xml version="1.0" standalone="no"?><!DOCTYPE svg PUBLIC "-//W3C//DTD SVG 1.1//EN" "http://www.w3.org/Graphics/SVG/1.1/DTD/svg11.dtd"><svg t="1511511957764" class="icon" style="" viewBox="0 0 1024 1024" version="1.1" xmlns="http://www.w3.org/2000/svg" p-id="1029" xmlns:xlink="http://www.w3.org/1999/xlink" width="200" height="200"><defs><style type="text/css"></style></defs><path d="M920.887 527.046l-206.45 206.45c-8.142 8.146-21.347 8.146-29.493 0l-29.493-29.493c-8.146-8.142-8.146-21.347 0-29.493l162.213-162.213-162.212-162.208c-8.146-8.146-8.146-21.351 0-29.497l29.493-29.493c8.146-8.146 21.351-8.146 29.493 0l206.45 206.45c8.15 8.146 8.15 21.351-0.001 29.497zM434.759 857.498l-37.643-10.54c-10.394-2.911-16.788-13.193-14.281-22.969L550.47 179.251c2.682-10.01 13.877-15.712 25.001-12.73l40.287 10.794c11.128 2.982 17.973 13.514 15.287 23.528L458.12 845.068c-2.511 9.777-12.967 15.341-23.361 12.43z m-66.214-153.495l-29.493 29.493c-8.142 8.146-21.347 8.146-29.493 0l-206.45-206.45c-8.146-8.146-8.146-21.351 0-29.497l206.45-206.45c8.146-8.146 21.351-8.146 29.493 0l29.493 29.493c8.146 8.146 8.146 21.351 0 29.497L206.332 512.297 368.545 674.51c8.146 8.146 8.146 21.351 0 29.493z" fill="#009DF8" p-id="1030"></path></svg>